<svg xmlns="http://www.w3.org/2000/svg" viewBox="0 0 60 60">
  <g fill="rgba(255, 255, 255, 0.7)">
    <path d="M23.43 17H47c.552 0 1-.447 1-1s-.448-1-1-1H23.43c-.553 0-1 .447-1 1s.447 1 1 1zM23.43 32H47c.552 0 1-.447 1-1s-.448-1-1-1H23.43c-.553 0-1 .447-1 1s.447 1 1 1zM23.43 47H47c.552 0 1-.447 1-1s-.448-1-1-1H23.43c-.553 0-1 .447-1 1s.447 1 1 1z"/>
    <path d="M59 0H1C.448 0 0 .447 0 1v58c0 .553.448 1 1 1h58c.552 0 1-.447 1-1V1c0-.553-.448-1-1-1zm-1 58H2V2h56v56z"/>
    <path d="M12.5 18.474l2.43-1.277 2.427 1.277-.463-2.704 1.964-1.916-2.715-.394L14.93 11l-1.215 2.46-2.715.394 1.965 1.916M12.5 33.557l2.43-1.277 2.427 1.277-.463-2.704 1.964-1.915-2.715-.395-1.214-2.46-1.215 2.46-2.715.395 1.965 1.915M12.5 49l2.43-1.277L17.356 49l-.463-2.704 1.964-1.915-2.715-.394-1.214-2.46-1.215 2.46L11 44.38l1.965 1.916"/>
  </g>
</svg>
