<svg xmlns="http://www.w3.org/2000/svg" viewBox="0 0 550.554 550.554"><path d="M352.67 40.224h-86.874c-29.924 0-60.813-1.93-90.736.965C67.913 53.737-11.24 153.16 1.31 261.272c12.548 103.285 100.388 173.75 201.743 174.716 17.375 0 34.75 0 52.125.964.965.965 2.896 1.93 3.86 1.93 6.758 4.827 13.515 8.69 20.272 13.515 28.958 19.305 57.917 38.61 86.875 56.95 7.722 4.827 18.34-1.93 18.34-10.617V432.13c94.597-17.376 164.098-96.53 166.028-194.988-1.93-107.147-88.805-194.987-197.882-196.918zm20.272 371.633c-6.757.965-12.55 4.826-11.583 11.583v54.056c-14.48-9.653-29.925-19.306-44.404-28.958-16.41-10.618-37.646-30.89-56.952-34.75-26.063-4.826-54.056.965-81.084-1.93-52.125-5.793-100.39-36.682-128.382-81.085-56.95-91.7-13.514-217.188 87.84-254.833 29.925-10.618 60.814-10.618 91.703-10.618h101.355c39.576 0 77.222 4.826 111.973 26.063 51.16 31.854 81.084 87.84 83.014 147.688-.966 87.84-65.64 161.2-153.48 172.784z" fill="#1BA2F9"/><path d="M416.38 274.787H126.796c-15.444 0-15.444 24.132 0 24.132H416.38c15.444 0 15.444-24.133 0-24.133zM416.38 183.086H126.796c-15.444 0-15.444 24.132 0 24.132H416.38c15.444 0 15.444-24.132 0-24.132z" fill="#1BA2F9"/></svg>
