<svg xmlns="http://www.w3.org/2000/svg" viewBox="0 0 202.96 202.96"><path d="M155.082 77.378h-10.27l6.115-23.373C156.33 33.35 143.93 12.147 123.27 6.74l-20.897-5.473c-20.66-5.408-41.873 7-47.28 27.654l8.904 2.33C68.113 15.5 84.29 6.04 100.03 10.165l20.91 5.468c15.743 4.123 25.21 20.292 21.094 36.043l-6.732 25.7H47.885c-7.605 0-13.796 6.188-13.796 13.796v97.994c0 7.605 6.19 13.796 13.795 13.796H155.08c7.6 0 13.792-6.19 13.792-13.796V91.178c.003-7.608-6.188-13.8-13.79-13.8zm4.592 111.793c0 2.538-2.06 4.596-4.592 4.596H47.885c-2.53 0-4.595-2.058-4.595-4.595V91.18c0-2.537 2.065-4.6 4.595-4.6H155.08c2.53 0 4.59 2.062 4.59 4.6v97.993h.004z" fill="#26ADE4"/><path d="M101.478 120.08c-9.563 0-17.347 7.778-17.347 17.344 0 5.894 3.036 11.345 7.996 14.527v19.36c0 5.16 4.19 9.35 9.348 9.35 5.154 0 9.355-4.19 9.355-9.35v-19.352c4.963-3.19 7.994-8.636 7.994-14.534.008-9.566-7.776-17.343-17.346-17.343zm5.966 28.535l-1.217.65v22.043c0 2.62-2.126 4.756-4.75 4.756-2.612 0-4.752-2.137-4.752-4.756v-22.05l-1.217-.643c-4.177-2.248-6.782-6.53-6.782-11.19 0-7.026 5.72-12.745 12.75-12.745s12.75 5.72 12.75 12.744c0 4.656-2.59 8.944-6.782 11.19z" fill="#26ADE4"/></svg>